# xmcd
#
# Track frame offsets: 
#        150
#        19969
#        34774
#        48488
#        68952
#        88740
#        103663
#        120857
#        135710
#        148675
#        168032
#
# Disc length: 2443 seconds
#
# Revision: 0
# Processed by: cddbd v1.5.2PL0 Copyright (c) Steve Scherf et al.
# Submitted via: ExactAudioCopy v0.99pb4
#
DISCID=9209890b
DTITLE=Various Artist - We Are Enterprise
DYEAR=2008
DGENRE=Country
TTITLE0=Clint Black - Someday
TTITLE1=John Anderson - When I Get Down
TTITLE2=Deborah Allen - This Is The Time
TTITLE3=Joe Diffie - You've Got A Friend
TTITLE4=Darryl Worley - Katie's Song
TTITLE5=Tracy Lawrence - Dear Lord
TTITLE6=Richie McDonald - God's Still In America
TTITLE7=Aaron Tippin - Mighty Good God
TTITLE8=Lorrie Morgan - You Are So Beautiful
TTITLE9=Shelly Fairchild - It's All Gonna Work Out
TTITLE10=George Jones - Amazing Grace
EXTD=
EXTT0=
EXTT1=
EXTT2=
EXTT3=
EXTT4=
EXTT5=
EXTT6=
EXTT7=
EXTT8=
EXTT9=
EXTT10=
PLAYORDER=
